<?xml version="1.0" encoding="UTF-8"?>
<svg version="1.1" viewBox="0 0 1500 1500" width="1500" height="1500" xmlns="http://www.w3.org/2000/svg">
<path transform="translate(990,588)" d="m0 0 10 1 6 4 5 8v12l-3 16-1 11h8l5-2 9 1 6 4 4 6 1 3v11l-3 17-2 18 19 1h19l3-1h8l5 6 1 4 4 1 2-4 5-6 8-4 9-2h16l18 1h28l7-1 12 1h11l6-1 9 3h38l1-2 6-48v-8l-6-5-1-8 5-16 6-10 9-7 8-3h39l4-1h7l5 4 4 8 8-7 12-4h39l2-1h6l5 3 3 6v8l-5 8-2 6-9 66-12 96-6 44-3 10-6 7-6 3-5 1h-22l-8-1-5 1h-10l-8-3-5-5-7 3-8 4h-26l-7-1-3 1h-47l-11-3-6-3-4 1-8 5-11 3-54 1 2 5 6 14 5 18 2 9v8l-4 4-12 3h-9l-6-4-2-3-9-1-4 9-5 2-12-3-21 1-11 2-8-1-6-2h-10l-6-4-2-3-9-1-3 9-6 2-9-3-4-3-6 2-4 2h-12l-1 1h-9l-10-5-5 4-10 3h-16l-12-6-10 5-4 1h-13l-10-4-1-1h-7l-4 1h-9l-6-3-2-5h-9l-4 9-5 2-8-2-7-5-7 2-14 2-7 2h-11l-6-2-11 4h-16l-9-3h-15l-11 2-8-1-6-2h-10l-6-4-2-3-9-1-3 9-6 2-9-3-5-4-10 1-12 5h-8l-6-3-5-1-5 3h-12l-2 1h-8l-6-3-9-8-2-3-2-8 1-9 3-6 3-1 1-5 6-14v-4l-12-2-2 1-5 15-6 5-6 2-10 1h-19l-10 1-7-4-2-9 3-7 3-4 2-5h-31l-11-2v15l8 9 4 11v9l-3 8-5 6-7 4-3 1h-14l-15-6-5 3-5 5-4 1h-223l-9-3-5-5-2-8-1-9h-13l-9 3h-29l-10 1-6-2-4-4v-9l5-9 13-90 3-16 6-11 4-5 8-5 9-3 6-1h23l-1-3v-9l5-14 7-8 8-4 8-2h19l17 1h26l9-1 11 1h10l7-1 5 2 5 8-1 8h36l7-10 7-5 12-3h16l18 1h28l7-1 12 1h11l6-1 5 2 4 6v2h31l6-12 9-8 9-3h33l9-3 6-1h21l27 2h14l11 3 8 6 6 7 5 10 1 4 4 1h38l7-9 9-5 9-2h16l18 1h28l7-1 12 1h11l6-1 5 2 3 3 2 5-1 7-1 2h9l4-5 9-6 7-2h33l-4-9 1-12 4-28 2-5 5-3 7 1 27 1-2-11 4-27 2-12 5-5h6l5 2h33z" fill="#FB7202"/>
<path transform="translate(1337,595)" d="m0 0 2 1-1 4-5 9-4 22-12 93-8 63-5 37-5 8-5 4h-26l-2-2 1-7 3-6-1-1-6 12-5 4h-12v-2l-6 2h-28l-10-4-7-8-1-3-6 10-7 5-9 3h-73l-2-4-5 4h-9l2-4 3-4 1-6-7 7-9 4h-30l-8-3-6-5-3-5-2-9-7 10-8 5-7 2h-38l-4-3v-9l-3 8-5 4h-10v-3l4-6v-11l-2-11-3 4-8 15-5 6-6 4-7 2h-30l-5-5 1-4 2-9h-2l-1 9-4 7-3 2h-11l1-4h2l2-6v-6l-5 10-8 7-9 4h-30l-10-4-6-7-2-4-6 10-7 5-9 3h-73l-2-4-5 4h-9l2-4 3-4 1-6-7 7-9 4h-29l-10-4-7-8-3-9-9 10-10 7-13 5-11 3-7 1h-32l-17-3-4 16-4 6-5 3-8 1h-21l-7 1v-5l4-5 4-11 2-14 1-2-11 7-4 1h-16v-7l1-5 14-1 7-3-3-7v-15l4 1 8 9 2-6 3-20 6-49 1-8v-10l-4 1-3 1 1-9 5-12 8-7 8-2h20l9 3 5-4 7-2h29l37 2 8 3 7 6 5 10 3 13v37l-4 23-5 16-4 10v8l4 6 6 4 3 1h27l9-4 6-7 3-9 3-17 6-46 1-13h-2l1-10 5-9 5-4 8-3h24l16 1h23l4-1 25 1 8-1-1 4-4 7-12 84v14l4 8 4 3 6 2 12 1 1 2 1-2 13-1 9-4 6-7 3-6 2-14-8-40-3-12-5-3-5 2h-3v-13l3-9 5-6 8-4h38l8-2 2 2-1 5-2 6 1 14 8 47 3 16 1 1 14-29 7-15-3-13-6-2h-3l-1 3h-2l-1-2v-9l2-9 4-6 7-6 3-1h38l10-1v5l-2 3v16l10 58 1 2 13-28 10-21 1-4-6 2h-3l2-6 9-14 9-8 8-4h37l10-1-3 5-6 7-10 19-11 23-21 42v7l3 7 4 4 7 3 13 1 14-1 10-5 6-8 4-18 8-59v-6h-2l1-10 5-9 6-5 6-2h25l16 1h22l5-1 25 1 8-1-1 4-4 7-8 55-4 29v15l4 7 4 3 6 2 13 1 13-1 9-4 6-7 4-13 8-61 8-63 5-38v-9l-2-1-4 3h-2l1-10 5-12 6-7 8-4h37z" fill="#FDFAF8"/>
<path transform="translate(558,684)" d="m0 0h29l37 2 8 3 7 6 5 10 3 13v37l-4 23-5 16-4 10v8l4 6 6 4 3 1h27l9-4 6-7 3-9 3-17 6-46 1-13h-2l1-10 5-9 5-4 8-3h24l16 1h23l4-1 25 1 8-1-1 4-4 7-12 84v14l4 8 4 3 6 2 12 1 1 11-1 1h-13l-10-4-6-7-2-4-6 10-7 5-9 3h-73l-2-4-5 4h-9l2-4 3-4 1-6-7 7-9 4h-29l-10-4-7-8-3-9-9 10-10 7-13 5-11 3-7 1h-32l-17-3-4 16-4 6-5 3-8 1h-21l-7 1v-5l4-5 4-11 2-14 1-2-11 7-4 1h-16v-7l1-5 14-1 7-3-3-7v-15l4 1 8 9 2-6 3-20 6-49 1-8v-10l-4 1-3 1 1-9 5-12 8-7 8-2h20l9 3 5-4z" fill="#FDFAF7"/>
<path transform="translate(185,700)" d="m0 0 37 2h20l4-1h10l16 1 8-1-1 4-4 7-8 54-4 29v16l4 7 4 3 6 2 12 1h2l13-1 10-5 6-8 4-17 8-60v-6h-2l1-10 5-9 6-5 6-2h25l16 1h22l5-1 25 1 8-1-1 4-4 7-8 55-4 29v15l4 7 4 3 6 2 12 1v12h-13l-10-4-6-7-2-4-6 10-7 5-9 3h-73l-2-4-5 4h-9l2-4 3-4 1-6-7 7-9 4h-30l-10-4-7-8v-3h-2l-2 6-4 5-6 4-10 3h-72l-2-5-5 5h-9l2-4 3-4 4-22 6-46 2-12 1-2h-8l-8 2-4 3-3 15-6 45-4 29-1 10 2 1 4-2-1 10-5 10-5 4-4 2h-29l-8 1v-4l4-7 8-54 6-43 4-15 7-9 10-5 5-1 36-1 2-13h-4-2v-7l6-12 6-5z" fill="#FCF9F7"/>
<path transform="translate(348,701)" d="m0 0h25l16 1h22l5-1 25 1 8-1-1 4-4 7-8 55-4 29v15l4 7 4 3 6 2 12 1v12h-13l-10-4-6-7-2-4-6 10-7 5-9 3h-73l-2-4-5 4h-9l2-4 3-4 1-6-7 7-4 2-6 1h-15v-10l1-1 13-1 10-5 6-8 4-17 8-60v-6h-2l1-10 5-9 6-5z" fill="#FCF9F7"/>
<path transform="translate(1412,596)" d="m0 0h3l1 3-6 10-2 7-9 67-9 73-9 66-3 8-7 6-3 1h-21l-5-3 1-6 5-9-3 3-5 10-4 4-3 1h-10v-4l4-1 2-5 3-9 9-67 7-54 6-49 2-13v-8l-5 2h-4l3-13 6-11 7-6 6-2h39z" fill="#FDFBF9"/>
<path transform="translate(209,859)" d="m0 0h178l5 5v34l-4 5-3 1h-175l5-5 2-13v-9l-2-13-3-3z" fill="#FBF4EE"/>
<path transform="translate(569,700)" d="m0 0h13l10 3 8 7 4 8 1 4v17l-5 36-4 17-4 9-5 8-8 7-11 4-5 1h-26l-7-2 2-14 8-50 3-23 4-15 6-9 9-6z" fill="#FC7101"/>
<path transform="translate(1152,713)" d="m0 0h15l4 4h5l-4 6-4 24-8 57-3 19-3 5-9 4h-12l-3-4-7-1 2-3h2l4-23 9-66 3-16 6-5z" fill="#FC7101"/>
<path transform="translate(385,713)" d="m0 0h15l4 4h5l-4 6-4 24-7 49-4 27-3 5-9 4h-12l-3-4-7-1 2-3h2l4-23 9-66 3-16 6-5z" fill="#FC7101"/>
<path transform="translate(216,713)" d="m0 0h15l4 4h5l-4 6-4 24-8 57-3 19-3 5-6 3-4 1h-11l-3-4-7-1 2-3h2l4-23 9-66 3-16 6-5z" fill="#FC7101"/>
<path transform="translate(755,713)" d="m0 0h15l4 4h5v2l-4 4-7 44-6 45-3 14-5 4-6 2h-12l-3-4-7-1 4-5 3-13 10-73 3-17 6-5z" fill="#FC7101"/>
<path transform="translate(991,596)" d="m0 0h6l4 3v11l-3 16-2 15-1 6-3-1-45-1-7-2-3-6 1-13 3-20 1-2v-5l4 1 45 1z" fill="#FCF9F6"/>
<path transform="translate(1020,646)" d="m0 0h6l4 4v11l-3 15-2 20-50-1-5-2-3-3-1-6 3-23 2-9v-5l4 1 45 1z" fill="#FCF9F7"/>
<path transform="translate(947,648)" d="m0 0 7 1 3 3v10l-3 17-2 14-1 6-6-1-46-1-5-4-1-2v-10l4-24 1-3v-4l5 1h43z" fill="#FDFAF8"/>
<path transform="translate(875,856)" d="m0 0h12l7 6 3 8v10l-3 10-7 9-8 5-4 1h-9l-7-3-5-6-2-5v-16l3-8 6 1 2-4 7-6z" fill="#FCF6F2"/>
<path transform="translate(1090,855)" d="m0 0h3l5 10 1 3 2-11 1-1 11-1 3 4 7 19 3 15v5l-14 4-2-6-1-17-2 6-2 9-7-1-7-3-4-15-4 27-2 2-10-9v-10l4-19 3-9z" fill="#FBF5F0"/>
<path transform="translate(814,855)" d="m0 0 4 2 4 9v4h2l1-13 1-1 11-1 7 14 5 19 1 10-14 4-2-6-1-13-1-4-3 14-4 1-10-3-4-17-4 26-2 4-8-7-2-2v-12l4-18 3-8z" fill="#FBF5EF"/>
<path transform="translate(996,855)" d="m0 0 4 1 5 12 1-2 1-9 1-1 11-1 5 8 5 15 3 13v7l-6 2-8 2-1-1-2-22-4 15-7-1-7-3-3-13h-1l-4 27-4-2-8-8 1-15 5-19 1-3z" fill="#FBF5EF"/>
<path transform="translate(642,855)" d="m0 0 4 1 5 12 1-2 1-9 1-1 11-1 5 8 5 15 3 13v7l-6 2-8 2-1-1-2-22-4 15-7-1-7-3-3-13h-1l-4 27-4-2-8-8 1-15 5-19 1-3z" fill="#FBF5EF"/>
<path transform="translate(756,856)" d="m0 0 9 1 4 2 1 5v11h5l-1-6v-8l12-5h3l1 3v14h4v12l-5 1-1 9-2 3-9 2-1-1-1-13-5-1v12l-2 4-10 3h-2l1-16 1-3-6-1 1-7 4-1z" fill="#FBF4EE"/>
<path transform="translate(560,854)" d="m0 0 12 6 4 6 3 12 4 1 2 9-2 1v6l-11 7h-3l-2-13-7-1-3 15-4-1-8-7 1-7h-3l2-7 3-1 6-16z" fill="#FBF2EB"/>
<path transform="translate(951,855)" d="m0 0 5 1 9 5 5 12 1 4 3 1 2 6v4h-2v7l-9 6-5 1-1-14h-8l-1 9-2 7-8-6-3-3 1-7h-3l1-6 4-1 3-10 6-13z" fill="#FBF2EB"/>
<path transform="translate(1055,854)" d="m0 0h10l3 5 1 10-22-2 1 7 6-1h9l-1 10h-14l1 6 12-2h5l1 14-3 1h-15l-15 2 2-10 2-27h-4l1-7 4-3z" fill="#FBF2EC"/>
<path transform="translate(701,854)" d="m0 0h10l3 5 1 10-22-2 1 7 6-1h9v7l-1 3h-14l1 6 12-2h5l1 14-3 1h-15l-15 2 2-9 2-28h-4l1-7 4-3z" fill="#FBF3EC"/>
<path transform="translate(736,854)" d="m0 0 7 2 5 6 2 5v10l-5-2-4-2-3-7-5 1-2 4 9 3 8 7 1 2v9l-5 8-7 4-4 1h-12l-4-2 3-16h17l1-3-11-2-6-4-2-4v-7l4-8 7-4z" fill="#FBF4EE"/>
<path transform="translate(918,854)" d="m0 0 9 2 5 6 2 6v8l-2 1-7-4-3-7-7 1 1 4 12 6 4 5 1 7-3 8-5 5-8 3h-12l-4-2 2-13 1-3h18l-2-3-12-3-5-6v-9l3-6 5-4z" fill="#FBF4EE"/>
<path transform="translate(589,857)" d="m0 0h14l2 1v13l-5 19 11-4 8-2 2 7v5l-12 2-11 4-6 1-6-5 1-8 1-5z" fill="#FBF3ED"/>
<path transform="translate(1424,597)" d="m0 0h1v8l-5 8-2 6-9 66-12 96-6 44-3 10-6 7-6 3-5 1h-22v-1l21-1 8-3 4-2 6-12 3-25 2-12 4-29 2-20 2-13 2-19 2-13 2-19 2-12 2-18 2-12 2-16 3-10 5-7z" fill="#EEBE98"/>
<path transform="translate(173,867)" d="m0 0 4 1 18 10 2 2v3l-17 10-3 2h-4l-1-2v-25z" fill="#FBF5F0"/>
<path transform="translate(416,865)" d="m0 0 4 1v2l5 2 3 3 4 9 3 4-18 5-6 1-1-2 1-2v-14z" fill="#FBF3ED"/>
<path transform="translate(347,872)" d="m0 0h10l4 3-1 6 2 3-1 5-2 1h-13v-17z" fill="#FC7101"/>
<path transform="translate(877,867)" d="m0 0 6 1 2 3v9l-4 8-3 2h-5l-2-3 1-9 1-3-2-1 1-4z" fill="#FC7101"/>
<path transform="translate(267,872)" d="m0 0h10l4 3v7l1 1v5l-3 2h-12z" fill="#FC7101"/>
<path transform="translate(396,899)" d="m0 0h6l-5 4-5 5-4 1h-189v-1l188-1 5-3z" fill="#EEBE98"/>
<path transform="translate(321,872)" d="m0 0h8l5 3 1 6-2 3 1 6-4-1-2-3h-4l-1 5-3-1v-17z" fill="#FC7101"/>
<path transform="translate(366,872)" d="m0 0h11l1 4h-9l1 3 7 1-1 3h-7v4h9v3h-13v-17z" fill="#FC7101"/>
<path transform="translate(248,872)" d="m0 0 3 1 1 14h6l1-14h4v12l-4 5h-8l-4-5v-12z" fill="#FC7101"/>
<path transform="translate(236,872)" d="m0 0 6 1 1 3h-9v3l9 3 1 5-3 3h-9l-2-1 1-3 9 1-1-3-8-3-1-5 3-3z" fill="#FC7101"/>
<path transform="translate(290,872)" d="m0 0 7 1v3l-8 1 2 2 7 3v6l-3 2h-8l-2-1v-3h9l1-2-9-3-1-1v-5z" fill="#FC7101"/>
<path transform="translate(308,872)" d="m0 0 6 1 3 3-4 1h-6l-2 3 1 5 1 1h9v3l-2 1h-7l-5-3-1-2v-7l5-5z" fill="#FC7101"/>
<path transform="translate(447,874)" d="m0 0 2 4v9l-3 8-5 6-7 4-9 1v-1l9-3 7-5 4-7z" fill="#EEBE98"/>
<path transform="translate(1039,652)" d="m0 0h1v11l-3 17-2 19-3 1 1-11 1-2 3-24z" fill="#EEBE98"/>
<path transform="translate(534,847)" d="m0 0 4 2-2 1-5 15-6 5-6 2h-7v-1l9-2 6-4 4-7 2-10z" fill="#EEBE98"/>
<path transform="translate(339,872)" d="m0 0 3 1v17h-4v-17z" fill="#FC7101"/>
<path transform="translate(1010,601)" d="m0 0h1v12l-3 16-1 11-3 1 2-17z" fill="#EEBE98"/>
<path transform="translate(177,869)" d="m0 0 6 2 13 8 1 4-3 1v-2l-5-2-12-10z" fill="#EEBE98"/>
<path transform="translate(1308,837)" d="m0 0h5l-4 2-8 5-3 1h-26v-1l24-1z" fill="#EEBE98"/>
<path transform="translate(1135,895)" d="m0 0h1v8l-4 4-12 3h-9v-1l11-2 10-3z" fill="#EEBE98"/>
<path transform="translate(324,876)" d="m0 0h6l1 5-1 1h-6l-1-5z" fill="#F7E2D1"/>
<path transform="translate(997,900)" d="m0 0h6l-3 2-3 9-6 2v-2l4-3z" fill="#EEBE98"/>
<path transform="translate(934,905)" d="m0 0 3 1-6 5-10 3h-5l4-2 10-4z" fill="#EEBE98"/>
<path transform="translate(643,900)" d="m0 0h6l-3 2-3 9-6 2v-2l4-3z" fill="#EEBE98"/>
<path transform="translate(1194,836)" d="m0 0 3 2-11 7-7 1 2-2 8-4z" fill="#EEBE98"/>
<path transform="translate(1091,900)" d="m0 0h6l-3 2-4 9-5 2v-2l4-3z" fill="#EEBE98"/>
<path transform="translate(892,905)" d="m0 0 2 2-8 5-7 2h-5l4-2 10-4z" fill="#EEBE98"/>
<path transform="translate(815,900)" d="m0 0h6l-4 4-3 7-5 2v-2l4-4z" fill="#EEBE98"/>
<path transform="translate(270,883)" d="m0 0h8l1 2-1 2h-8z" fill="#F4D9C3"/>
<path transform="translate(350,883)" d="m0 0h8v4h-8z" fill="#F6E0CE"/>
<path transform="translate(973,905)" d="m0 0 4 1-9 5h-8v-1l8-2z" fill="#EEBE98"/>
<path transform="translate(351,875)" d="m0 0 6 1-1 4h-5l-1-4z" fill="#F6DFCC"/>
<path transform="translate(270,876)" d="m0 0h7v3l-1 1h-5z" fill="#F5DAC5"/>
</svg>
